<svg width="1200" height="900" viewBox="0 0 1200 900" fill="none" xmlns="http://www.w3.org/2000/svg">
  <rect width="1200" height="900" rx="44" fill="#0A0F14"/>
  <rect x="24" y="24" width="1152" height="852" rx="32" fill="#101720" stroke="#1E293B" stroke-width="2"/>
  <rect x="24" y="24" width="1152" height="72" rx="32" fill="#0F172A"/>
  <circle cx="72" cy="60" r="10" fill="#FB7185"/>
  <circle cx="108" cy="60" r="10" fill="#FBBF24"/>
  <circle cx="144" cy="60" r="10" fill="#34D399"/>
  <text x="186" y="68" fill="#E2E8F0" font-family="Consolas, 'Courier New', monospace" font-size="28">Unix Project / FinalProject.sh</text>

  <rect x="60" y="134" width="360" height="686" rx="24" fill="#0B1220" stroke="#1E293B" stroke-width="2"/>
  <text x="90" y="190" fill="#22D3EE" font-family="Consolas, 'Courier New', monospace" font-size="28">SYSTEM MENU</text>
  <text x="90" y="236" fill="#64748B" font-family="Consolas, 'Courier New', monospace" font-size="22">Select an option [1-7]</text>

  <rect x="82" y="274" width="316" height="62" rx="16" fill="#111C2D" stroke="#22D3EE" stroke-width="2"/>
  <text x="108" y="314" fill="#E2E8F0" font-family="Consolas, 'Courier New', monospace" font-size="24">1. System Status</text>

  <rect x="82" y="352" width="316" height="62" rx="16" fill="#111827"/>
  <text x="108" y="392" fill="#CBD5E1" font-family="Consolas, 'Courier New', monospace" font-size="24">2. Backup</text>

  <rect x="82" y="430" width="316" height="62" rx="16" fill="#111827"/>
  <text x="108" y="470" fill="#CBD5E1" font-family="Consolas, 'Courier New', monospace" font-size="24">3. Network</text>

  <rect x="82" y="508" width="316" height="62" rx="16" fill="#111827"/>
  <text x="108" y="548" fill="#CBD5E1" font-family="Consolas, 'Courier New', monospace" font-size="24">4. Services</text>

  <rect x="82" y="586" width="316" height="62" rx="16" fill="#111827"/>
  <text x="108" y="626" fill="#CBD5E1" font-family="Consolas, 'Courier New', monospace" font-size="24">5. User Management</text>

  <rect x="82" y="664" width="316" height="62" rx="16" fill="#111827"/>
  <text x="108" y="704" fill="#CBD5E1" font-family="Consolas, 'Courier New', monospace" font-size="24">6. File Management</text>

  <rect x="460" y="134" width="680" height="686" rx="24" fill="#07111D" stroke="#1E293B" stroke-width="2"/>
  <text x="500" y="190" fill="#38BDF8" font-family="Consolas, 'Courier New', monospace" font-size="28">System Status</text>
  <text x="500" y="236" fill="#94A3B8" font-family="Consolas, 'Courier New', monospace" font-size="22">$ free -h</text>

  <rect x="500" y="268" width="284" height="118" rx="18" fill="#0F1B2D"/>
  <text x="528" y="314" fill="#E2E8F0" font-family="Consolas, 'Courier New', monospace" font-size="24">Memory</text>
  <text x="528" y="352" fill="#34D399" font-family="Consolas, 'Courier New', monospace" font-size="34">7.8 GB</text>

  <rect x="810" y="268" width="284" height="118" rx="18" fill="#0F1B2D"/>
  <text x="838" y="314" fill="#E2E8F0" font-family="Consolas, 'Courier New', monospace" font-size="24">CPU Temp</text>
  <text x="838" y="352" fill="#FBBF24" font-family="Consolas, 'Courier New', monospace" font-size="34">48°C</text>

  <rect x="500" y="420" width="594" height="170" rx="20" fill="#0F1B2D"/>
  <text x="528" y="466" fill="#E2E8F0" font-family="Consolas, 'Courier New', monospace" font-size="24">Active Processes</text>
  <text x="528" y="510" fill="#94A3B8" font-family="Consolas, 'Courier New', monospace" font-size="22">nginx          running</text>
  <text x="528" y="546" fill="#94A3B8" font-family="Consolas, 'Courier New', monospace" font-size="22">mariadb        running</text>
  <text x="528" y="582" fill="#94A3B8" font-family="Consolas, 'Courier New', monospace" font-size="22">backup-agent   scheduled</text>

  <rect x="500" y="622" width="284" height="144" rx="18" fill="#0F1B2D"/>
  <text x="528" y="668" fill="#E2E8F0" font-family="Consolas, 'Courier New', monospace" font-size="24">User Tools</text>
  <text x="528" y="706" fill="#94A3B8" font-family="Consolas, 'Courier New', monospace" font-size="22">add / delete users</text>
  <text x="528" y="740" fill="#94A3B8" font-family="Consolas, 'Courier New', monospace" font-size="22">manage groups</text>

  <rect x="810" y="622" width="284" height="144" rx="18" fill="#0F1B2D"/>
  <text x="838" y="668" fill="#E2E8F0" font-family="Consolas, 'Courier New', monospace" font-size="24">Backup</text>
  <text x="838" y="706" fill="#94A3B8" font-family="Consolas, 'Courier New', monospace" font-size="22">weekly scheduling</text>
  <text x="838" y="740" fill="#94A3B8" font-family="Consolas, 'Courier New', monospace" font-size="22">status checks</text>
</svg>
